<mxfile host="app.diagrams.net" modified="2023-11-05T05:45:20.882Z" agent="Mozilla/5.0 (Windows NT 10.0; Win64; x64) AppleWebKit/537.36 (KHTML, like Gecko) Chrome/119.0.0.0 Safari/537.36 Edg/119.0.0.0" etag="vFWrIRYESyvwLEc1FrVY" version="22.0.8" type="device">
  <diagram name="Page-1" id="Zhds4qJ5c7Odu2s9Zs-a">
    <mxGraphModel dx="2897" dy="2117" grid="1" gridSize="10" guides="1" tooltips="1" connect="1" arrows="1" fold="1" page="1" pageScale="1" pageWidth="827" pageHeight="1169" math="0" shadow="0">
      <root>
        <mxCell id="0" />
        <mxCell id="1" parent="0" />
        <mxCell id="CvS2M7HtoJCNQKC2x9Xb-1" value="Rameur" style="swimlane;whiteSpace=wrap;html=1;" parent="1" vertex="1">
          <mxGeometry x="80" y="530" width="210" height="190" as="geometry" />
        </mxCell>
        <mxCell id="CvS2M7HtoJCNQKC2x9Xb-6" value="&lt;ul&gt;&lt;li&gt;&lt;b&gt;ID_Rameur&lt;/b&gt;&lt;/li&gt;&lt;li&gt;MDP&lt;/li&gt;&lt;li&gt;Nom&lt;/li&gt;&lt;li&gt;Prénom&lt;/li&gt;&lt;li&gt;Téléphone&lt;/li&gt;&lt;li&gt;Mail&lt;/li&gt;&lt;li&gt;&lt;font color=&quot;#0000ff&quot;&gt;#ID_User&lt;/font&gt;&lt;/li&gt;&lt;li&gt;&lt;font color=&quot;#0000ff&quot;&gt;#ID_Equipe&lt;/font&gt;&lt;br&gt;&lt;/li&gt;&lt;/ul&gt;" style="text;strokeColor=none;fillColor=none;html=1;whiteSpace=wrap;verticalAlign=middle;overflow=hidden;" parent="CvS2M7HtoJCNQKC2x9Xb-1" vertex="1">
          <mxGeometry y="30" width="210" height="150" as="geometry" />
        </mxCell>
        <mxCell id="CvS2M7HtoJCNQKC2x9Xb-2" value="Entraîneur" style="swimlane;whiteSpace=wrap;html=1;" parent="1" vertex="1">
          <mxGeometry x="570" y="90" width="200" height="180" as="geometry" />
        </mxCell>
        <mxCell id="CvS2M7HtoJCNQKC2x9Xb-7" value="&lt;ul&gt;&lt;li style=&quot;border-color: var(--border-color);&quot;&gt;&lt;b&gt;ID_Entraineur&lt;/b&gt;&lt;/li&gt;&lt;li style=&quot;border-color: var(--border-color);&quot;&gt;&lt;span style=&quot;background-color: initial;&quot;&gt;MDP&lt;/span&gt;&lt;/li&gt;&lt;li style=&quot;border-color: var(--border-color);&quot;&gt;&lt;span style=&quot;background-color: initial;&quot;&gt;Nom&lt;/span&gt;&lt;br&gt;&lt;/li&gt;&lt;li&gt;Prénom&lt;/li&gt;&lt;li&gt;Téléphone&lt;/li&gt;&lt;li&gt;Mail&lt;/li&gt;&lt;li&gt;&lt;font color=&quot;#0000ff&quot;&gt;#ID_User&lt;/font&gt;&lt;/li&gt;&lt;/ul&gt;" style="text;strokeColor=none;fillColor=none;html=1;whiteSpace=wrap;verticalAlign=middle;overflow=hidden;" parent="CvS2M7HtoJCNQKC2x9Xb-2" vertex="1">
          <mxGeometry y="20" width="200" height="150" as="geometry" />
        </mxCell>
        <mxCell id="CvS2M7HtoJCNQKC2x9Xb-3" value="Créneau" style="swimlane;whiteSpace=wrap;html=1;" parent="1" vertex="1">
          <mxGeometry x="-150" y="100" width="200" height="130" as="geometry" />
        </mxCell>
        <mxCell id="CvS2M7HtoJCNQKC2x9Xb-9" value="&lt;ul style=&quot;border-color: var(--border-color);&quot;&gt;&lt;li style=&quot;border-color: var(--border-color);&quot;&gt;&lt;b&gt;ID_Creneau&lt;/b&gt;&lt;/li&gt;&lt;li style=&quot;border-color: var(--border-color);&quot;&gt;Date&lt;/li&gt;&lt;li style=&quot;border-color: var(--border-color);&quot;&gt;Heure_Debut&lt;/li&gt;&lt;li style=&quot;border-color: var(--border-color);&quot;&gt;Heure_Fin&lt;/li&gt;&lt;/ul&gt;&lt;div&gt;&lt;/div&gt;" style="text;strokeColor=none;fillColor=none;html=1;whiteSpace=wrap;verticalAlign=middle;overflow=hidden;" parent="CvS2M7HtoJCNQKC2x9Xb-3" vertex="1">
          <mxGeometry y="30" width="200" height="80" as="geometry" />
        </mxCell>
        <mxCell id="CvS2M7HtoJCNQKC2x9Xb-4" value="Pirogue" style="swimlane;whiteSpace=wrap;html=1;" parent="1" vertex="1">
          <mxGeometry x="-155" y="-120" width="210" height="140" as="geometry" />
        </mxCell>
        <mxCell id="CvS2M7HtoJCNQKC2x9Xb-8" value="&lt;ul style=&quot;border-color: var(--border-color);&quot;&gt;&lt;li style=&quot;border-color: var(--border-color);&quot;&gt;&lt;b&gt;ID_Priogue&lt;/b&gt;&lt;/li&gt;&lt;li style=&quot;border-color: var(--border-color);&quot;&gt;Place(s)&lt;/li&gt;&lt;li style=&quot;border-color: var(--border-color);&quot;&gt;Commentaire&lt;/li&gt;&lt;li style=&quot;border-color: var(--border-color);&quot;&gt;Etat&lt;/li&gt;&lt;li style=&quot;border-color: var(--border-color);&quot;&gt;&lt;font color=&quot;#0000ff&quot;&gt;#ID_Creneau&lt;/font&gt;&lt;/li&gt;&lt;/ul&gt;&lt;div&gt;&lt;/div&gt;" style="text;strokeColor=none;fillColor=none;html=1;whiteSpace=wrap;verticalAlign=middle;overflow=hidden;" parent="CvS2M7HtoJCNQKC2x9Xb-4" vertex="1">
          <mxGeometry y="25" width="210" height="95" as="geometry" />
        </mxCell>
        <mxCell id="CvS2M7HtoJCNQKC2x9Xb-5" value="Equipe" style="swimlane;whiteSpace=wrap;html=1;" parent="1" vertex="1">
          <mxGeometry x="690" y="555" width="200" height="110" as="geometry" />
        </mxCell>
        <mxCell id="CvS2M7HtoJCNQKC2x9Xb-10" value="&lt;ul&gt;&lt;li style=&quot;border-color: var(--border-color);&quot;&gt;&lt;b&gt;ID_Equipe&lt;/b&gt;&lt;/li&gt;&lt;li style=&quot;border-color: var(--border-color);&quot;&gt;Nom&lt;/li&gt;&lt;li style=&quot;border-color: var(--border-color);&quot;&gt;&lt;font color=&quot;#0000ff&quot;&gt;#ID_Entraineur&lt;/font&gt;&lt;/li&gt;&lt;/ul&gt;" style="text;strokeColor=none;fillColor=none;html=1;whiteSpace=wrap;verticalAlign=middle;overflow=hidden;" parent="CvS2M7HtoJCNQKC2x9Xb-5" vertex="1">
          <mxGeometry y="30" width="200" height="60" as="geometry" />
        </mxCell>
        <mxCell id="TaAkFJ5V7adSZNvxT8OZ-12" value="" style="endArrow=none;html=1;rounded=0;entryX=0.5;entryY=1;entryDx=0;entryDy=0;exitX=0.5;exitY=0;exitDx=0;exitDy=0;" parent="1" source="6aaf2C7qP1MZqvxs9IOA-5" target="CvS2M7HtoJCNQKC2x9Xb-3" edge="1">
          <mxGeometry width="50" height="50" relative="1" as="geometry">
            <mxPoint x="-50" y="330" as="sourcePoint" />
            <mxPoint x="-70" y="330" as="targetPoint" />
          </mxGeometry>
        </mxCell>
        <mxCell id="TaAkFJ5V7adSZNvxT8OZ-13" value="" style="endArrow=none;html=1;rounded=0;entryX=0.5;entryY=1;entryDx=0;entryDy=0;exitX=0;exitY=0.75;exitDx=0;exitDy=0;" parent="1" source="CvS2M7HtoJCNQKC2x9Xb-6" target="6aaf2C7qP1MZqvxs9IOA-5" edge="1">
          <mxGeometry width="50" height="50" relative="1" as="geometry">
            <mxPoint x="-60" y="670" as="sourcePoint" />
            <mxPoint x="-60" y="480" as="targetPoint" />
          </mxGeometry>
        </mxCell>
        <mxCell id="TaAkFJ5V7adSZNvxT8OZ-18" value="" style="endArrow=none;html=1;rounded=0;entryX=0;entryY=0.5;entryDx=0;entryDy=0;exitX=1;exitY=0.5;exitDx=0;exitDy=0;" parent="1" source="CvS2M7HtoJCNQKC2x9Xb-9" target="6aaf2C7qP1MZqvxs9IOA-2" edge="1">
          <mxGeometry width="50" height="50" relative="1" as="geometry">
            <mxPoint x="50" y="220" as="sourcePoint" />
            <mxPoint x="150" y="230" as="targetPoint" />
          </mxGeometry>
        </mxCell>
        <mxCell id="QtlugoNua8sO2LSQ3qPo-1" value="Administrateur" style="swimlane;whiteSpace=wrap;html=1;" parent="1" vertex="1">
          <mxGeometry x="180" y="300" width="200" height="170" as="geometry" />
        </mxCell>
        <mxCell id="QtlugoNua8sO2LSQ3qPo-2" value="&lt;ul&gt;&lt;li style=&quot;border-color: var(--border-color);&quot;&gt;&lt;b&gt;ID_Admin&lt;/b&gt;&lt;/li&gt;&lt;li style=&quot;border-color: var(--border-color);&quot;&gt;&lt;span style=&quot;background-color: initial;&quot;&gt;MDP&lt;/span&gt;&lt;/li&gt;&lt;li style=&quot;border-color: var(--border-color);&quot;&gt;Nom&lt;br style=&quot;border-color: var(--border-color);&quot;&gt;&lt;/li&gt;&lt;li style=&quot;border-color: var(--border-color);&quot;&gt;Prénom&lt;/li&gt;&lt;li style=&quot;border-color: var(--border-color);&quot;&gt;Téléphone&lt;/li&gt;&lt;li style=&quot;border-color: var(--border-color);&quot;&gt;Mail&lt;/li&gt;&lt;li style=&quot;border-color: var(--border-color);&quot;&gt;&lt;font color=&quot;#0000ff&quot;&gt;#ID_User&lt;/font&gt;&lt;/li&gt;&lt;/ul&gt;" style="text;strokeColor=none;fillColor=none;html=1;whiteSpace=wrap;verticalAlign=middle;overflow=hidden;" parent="QtlugoNua8sO2LSQ3qPo-1" vertex="1">
          <mxGeometry y="30" width="200" height="120" as="geometry" />
        </mxCell>
        <mxCell id="QtlugoNua8sO2LSQ3qPo-16" value="" style="endArrow=none;html=1;rounded=0;entryX=0;entryY=0.5;entryDx=0;entryDy=0;exitX=1;exitY=0.5;exitDx=0;exitDy=0;" parent="1" source="CvS2M7HtoJCNQKC2x9Xb-1" target="6aaf2C7qP1MZqvxs9IOA-4" edge="1">
          <mxGeometry width="50" height="50" relative="1" as="geometry">
            <mxPoint x="260" y="950" as="sourcePoint" />
            <mxPoint x="460" y="835" as="targetPoint" />
          </mxGeometry>
        </mxCell>
        <mxCell id="QtlugoNua8sO2LSQ3qPo-17" value="" style="endArrow=none;html=1;rounded=0;entryX=0;entryY=0.5;entryDx=0;entryDy=0;exitX=1;exitY=0.5;exitDx=0;exitDy=0;" parent="1" source="6aaf2C7qP1MZqvxs9IOA-4" target="CvS2M7HtoJCNQKC2x9Xb-10" edge="1">
          <mxGeometry width="50" height="50" relative="1" as="geometry">
            <mxPoint x="650" y="835" as="sourcePoint" />
            <mxPoint x="870" y="810" as="targetPoint" />
          </mxGeometry>
        </mxCell>
        <mxCell id="QtlugoNua8sO2LSQ3qPo-18" value="" style="endArrow=none;html=1;rounded=0;entryX=0;entryY=0.5;entryDx=0;entryDy=0;exitX=1;exitY=0.5;exitDx=0;exitDy=0;" parent="1" source="6aaf2C7qP1MZqvxs9IOA-2" target="CvS2M7HtoJCNQKC2x9Xb-7" edge="1">
          <mxGeometry width="50" height="50" relative="1" as="geometry">
            <mxPoint x="360" y="180" as="sourcePoint" />
            <mxPoint x="660" y="420" as="targetPoint" />
          </mxGeometry>
        </mxCell>
        <mxCell id="6aaf2C7qP1MZqvxs9IOA-1" value="Tenu" style="swimlane;whiteSpace=wrap;html=1;" parent="1" vertex="1">
          <mxGeometry x="180" y="110" width="170" height="110" as="geometry" />
        </mxCell>
        <mxCell id="6aaf2C7qP1MZqvxs9IOA-2" value="&lt;ul style=&quot;border-color: var(--border-color);&quot;&gt;&lt;li style=&quot;border-color: var(--border-color);&quot;&gt;&lt;font color=&quot;#0000ff&quot;&gt;#ID_Creneau&lt;/font&gt;&lt;/li&gt;&lt;li style=&quot;border-color: var(--border-color);&quot;&gt;&lt;font color=&quot;#0000ff&quot;&gt;#ID_Entraineur&lt;/font&gt;&lt;/li&gt;&lt;/ul&gt;&lt;div&gt;&lt;/div&gt;" style="text;strokeColor=none;fillColor=none;html=1;whiteSpace=wrap;verticalAlign=middle;overflow=hidden;" parent="6aaf2C7qP1MZqvxs9IOA-1" vertex="1">
          <mxGeometry y="30" width="170" height="60" as="geometry" />
        </mxCell>
        <mxCell id="6aaf2C7qP1MZqvxs9IOA-3" value="Membre" style="swimlane;whiteSpace=wrap;html=1;" parent="1" vertex="1">
          <mxGeometry x="390" y="555" width="170" height="110" as="geometry" />
        </mxCell>
        <mxCell id="6aaf2C7qP1MZqvxs9IOA-4" value="&lt;ul style=&quot;border-color: var(--border-color);&quot;&gt;&lt;li style=&quot;border-color: var(--border-color);&quot;&gt;&lt;font color=&quot;#0000ff&quot;&gt;#ID_Rameur&lt;/font&gt;&lt;/li&gt;&lt;li style=&quot;border-color: var(--border-color);&quot;&gt;&lt;font color=&quot;#0000ff&quot;&gt;#ID_Equipe&lt;/font&gt;&lt;/li&gt;&lt;/ul&gt;&lt;div&gt;&lt;/div&gt;" style="text;strokeColor=none;fillColor=none;html=1;whiteSpace=wrap;verticalAlign=middle;overflow=hidden;" parent="6aaf2C7qP1MZqvxs9IOA-3" vertex="1">
          <mxGeometry y="30" width="170" height="60" as="geometry" />
        </mxCell>
        <mxCell id="6aaf2C7qP1MZqvxs9IOA-5" value="Participe" style="swimlane;whiteSpace=wrap;html=1;startSize=23;" parent="1" vertex="1">
          <mxGeometry x="-140" y="350" width="170" height="110" as="geometry" />
        </mxCell>
        <mxCell id="6aaf2C7qP1MZqvxs9IOA-6" value="&lt;ul style=&quot;border-color: var(--border-color);&quot;&gt;&lt;li style=&quot;border-color: var(--border-color);&quot;&gt;&lt;font color=&quot;#0000ff&quot;&gt;#ID_Rameur&lt;/font&gt;&lt;/li&gt;&lt;li style=&quot;border-color: var(--border-color);&quot;&gt;&lt;font color=&quot;#0000ff&quot;&gt;#ID_Creneau&lt;/font&gt;&lt;/li&gt;&lt;/ul&gt;&lt;div&gt;&lt;/div&gt;" style="text;strokeColor=none;fillColor=none;html=1;whiteSpace=wrap;verticalAlign=middle;overflow=hidden;" parent="6aaf2C7qP1MZqvxs9IOA-5" vertex="1">
          <mxGeometry y="30" width="170" height="60" as="geometry" />
        </mxCell>
        <mxCell id="jCy7Spd5EAjAZJI5WW6S-4" value="Utilisateur" style="swimlane;whiteSpace=wrap;html=1;" vertex="1" parent="1">
          <mxGeometry x="590" y="340" width="200" height="150" as="geometry" />
        </mxCell>
        <mxCell id="jCy7Spd5EAjAZJI5WW6S-5" value="&lt;ul&gt;&lt;li style=&quot;border-color: var(--border-color);&quot;&gt;&lt;b&gt;ID_User&lt;/b&gt;&lt;/li&gt;&lt;li style=&quot;border-color: var(--border-color);&quot;&gt;&lt;span style=&quot;background-color: initial;&quot;&gt;MDP&lt;/span&gt;&lt;/li&gt;&lt;li style=&quot;border-color: var(--border-color);&quot;&gt;&lt;span style=&quot;background-color: initial;&quot;&gt;Status&lt;/span&gt;&lt;/li&gt;&lt;/ul&gt;" style="text;strokeColor=none;fillColor=none;html=1;whiteSpace=wrap;verticalAlign=middle;overflow=hidden;" vertex="1" parent="jCy7Spd5EAjAZJI5WW6S-4">
          <mxGeometry y="20" width="200" height="120" as="geometry" />
        </mxCell>
      </root>
    </mxGraphModel>
  </diagram>
</mxfile>
